<svg xmlns="http://www.w3.org/2000/svg" xmlns:xlink="http://www.w3.org/1999/xlink" viewBox="0 0 148.829 148.829" fill="#fff" fill-rule="evenodd" stroke="#000" stroke-linecap="round" stroke-linejoin="round"><use xlink:href="#A" x=".915" y=".915"/><symbol id="A" overflow="visible"><g stroke="none"><path d="M12.196 0Q0 0 0 12.196v121.952q0 12.194 12.196 12.194h121.952q12.194 0 12.194-12.196V12.196Q146.341 0 134.146 0z" fill="#db4437"/><path d="M115.244 62.241h-8.323V54h-5.305v8.241h-8.323v5.246h8.323v8.241h5.299v-8.241h8.329zM89.817 80.016c-2.768-3.097-7.017-6.34-9.091-8.158s-6.67-5.062 2.195-11.353 7.61-14.499 5.832-19.463-5.336-7.273-5.982-8.159.146-.64.146-.64 5.534 2.147 12.205-3.536H76.793c-4.637-.205-9.38.183-13.902 1.207-5.067 1.171-9.71 4.595-12.574 8.877-.476.732-.929 1.471-1.293 2.25-2.137 4.573-2.25 9.739-.432 14.424.516 1.328 1.257 2.7 2.159 3.81 2.323 2.85 7.134 5.898 11.365 6.192s6.177.198 6.177.198-3.212 5.749 2.1 10.763l-9.933 1.401c-6.448.885-16.034 4.496-18.011 13.591s4.233 13.957 8.985 16.12c5.861 2.667 12.648 3 18.955 2.232 3.371-.41 6.799-1.134 9.909-2.524 3.951-1.769 7.363-4.473 9.635-7.421 3.293-4.275 4.709-10.555 2.598-15.671-.613-1.487-1.646-2.936-2.698-4.134zm-21.22-17.671c-3.424-.516-6.135-3.097-7.692-5.159-1.888-2.502-2.835-5.963-3.406-8.993-.311-1.646-.366-3.463-.306-5.135.121-3.417 1.423-6.719 3.816-8.753 1.577-1.341 3.626-2.129 6.123-2.038 5.832.214 9.706 5.945 11.488 10.91.741 2.063 1.409 5.603 1.463 7.445s.146 6.046-2.373 8.479-5.707 3.759-9.132 3.243zm17.287 33.296c-1.185 11.598-18.874 9.534-21.247 9.238s-14.726-3.439-13.043-14.056c.249-1.573.938-3.232 1.957-4.464 1.866-2.257 4.599-3.772 7.339-4.701 3.335-1.134 6.768-2.012 10.167-1.829 1.763.104 3.518.507 5.239 1.326 5.171 2.46 10.202 8.506 9.589 14.488z"/></g></symbol></svg>