<svg width="21" height="21" viewBox="0 0 21 21" fill="none" xmlns="http://www.w3.org/2000/svg">
<path d="M16.8488 0H4.05619C1.87209 0 0 1.76808 0 4.05618V16.8487C0 19.0328 1.76809 20.9049 4.05619 20.9049H16.8488C19.0329 20.9049 20.9049 19.1368 20.9049 16.8487V4.05618C20.9049 1.76808 19.1369 0 16.8488 0ZM17.9928 2.39211H18.4088V5.92826H14.8727V2.39211H17.9928ZM7.48834 8.21637C8.11237 7.28032 9.25642 6.6563 10.5045 6.6563C11.7525 6.6563 12.7926 7.28032 13.5206 8.21637C13.9366 8.84039 14.2486 9.56842 14.2486 10.4005C14.2486 12.3765 12.5846 14.0406 10.6085 14.0406C8.6324 14.0406 6.96832 12.3765 6.96832 10.4005C6.86432 9.56842 7.07233 8.84039 7.48834 8.21637ZM18.9289 16.7447C18.9289 17.8888 17.9928 18.7208 16.9528 18.7208H4.16018C3.01613 18.7208 2.1841 17.7848 2.1841 16.7447V8.21637H5.30424C4.99223 8.84039 4.88823 9.56842 4.88823 10.4005C4.88823 13.5206 7.48834 16.1207 10.6085 16.1207C13.7286 16.1207 16.3287 13.5206 16.3287 10.4005C16.3287 9.67243 16.2247 8.9444 15.9127 8.21637H19.0328V16.7447H18.9289Z" fill="black"/>
</svg>
